<svg width="171" height="81" viewBox="0 0 171 81" fill="none" xmlns="http://www.w3.org/2000/svg">
<path d="M0.3 52.55H3.15L9.27 71.3H9.3L15.42 52.55H18.27L10.77 74H7.8L0.3 52.55ZM20.5842 74V52.55H29.1042C33.0342 52.55 36.0642 54.29 36.0642 58.79C36.0642 63.29 33.0342 65.03 29.1042 65.03H23.2842V74H20.5842ZM23.2842 54.95V62.63H29.4042C32.0742 62.63 33.3642 61.4 33.3642 58.79C33.3642 56.18 32.0742 54.95 29.4042 54.95H23.2842ZM38.6604 74V52.55H47.1804C51.1104 52.55 54.1404 54.29 54.1404 58.79C54.1404 63.29 51.1104 65.03 47.1804 65.03H41.3604V74H38.6604ZM41.3604 54.95V62.63H47.4804C50.1504 62.63 51.4404 61.4 51.4404 58.79C51.4404 56.18 50.1504 54.95 47.4804 54.95H41.3604ZM78.2824 59.63C77.8924 57.59 76.3324 54.53 71.8624 54.53C66.7624 54.53 64.6324 58.94 64.6324 63.26C64.6324 67.61 66.7624 72.02 71.8624 72.02C76.3624 72.02 78.1024 68.96 78.2824 66.26H80.9824C80.5024 71 77.1424 74.42 71.8624 74.42C65.9824 74.42 61.9324 69.74 61.9324 63.26C61.9324 56.81 65.9824 52.13 71.8624 52.13C77.1124 52.13 80.4724 55.55 80.9824 59.63H78.2824ZM90.282 74.42C85.602 74.42 82.782 71.12 82.782 66.35C82.782 61.58 85.602 58.28 90.282 58.28C94.932 58.28 97.752 61.58 97.752 66.35C97.752 71.12 94.932 74.42 90.282 74.42ZM90.282 72.32C93.702 72.32 95.352 69.62 95.352 66.35C95.352 63.08 93.702 60.38 90.282 60.38C86.832 60.38 85.182 63.08 85.182 66.35C85.182 69.62 86.832 72.32 90.282 72.32ZM107.675 58.28C110.465 58.28 112.805 59.81 112.805 63.32V74H110.405V63.92C110.405 61.94 109.475 60.38 107.075 60.38C104.375 60.38 102.575 62.09 102.575 64.46V74H100.175V58.7H102.575V60.53H102.635C103.445 59.45 105.065 58.28 107.675 58.28ZM123.525 58.28C126.315 58.28 128.655 59.81 128.655 63.32V74H126.255V63.92C126.255 61.94 125.325 60.38 122.925 60.38C120.225 60.38 118.425 62.09 118.425 64.46V74H116.025V58.7H118.425V60.53H118.485C119.295 59.45 120.915 58.28 123.525 58.28ZM138.385 72.32C141.445 72.32 142.585 70.34 142.855 69.29H145.255C144.475 72.14 142.285 74.42 138.475 74.42C133.825 74.42 131.005 71.15 131.005 66.35C131.005 61.25 133.885 58.28 138.355 58.28C143.155 58.28 145.495 61.55 145.495 66.98H133.405C133.405 69.74 135.055 72.32 138.385 72.32ZM138.355 60.38C135.475 60.38 133.405 62.42 133.405 64.88H143.095C143.095 62.42 141.235 60.38 138.355 60.38ZM158.731 64.22C158.611 62.54 157.471 60.38 154.411 60.38C150.781 60.38 149.401 63.47 149.401 66.35C149.401 69.23 150.781 72.32 154.411 72.32C157.501 72.32 158.611 70.19 158.731 68.36H161.131C160.921 71.84 158.191 74.42 154.411 74.42C149.941 74.42 147.001 71.15 147.001 66.35C147.001 61.55 149.941 58.28 154.411 58.28C158.191 58.28 160.771 60.8 161.131 64.22H158.731ZM170.087 60.8H167.087V70.01C167.087 71.75 168.047 72.05 170.087 71.9V74C169.547 74.12 168.917 74.18 168.287 74.18C166.247 74.18 164.687 73.37 164.687 70.25V60.8H162.437V58.7H164.687V53.6H167.087V58.7H170.087V60.8Z" fill="white"/>
<path fill-rule="evenodd" clip-rule="evenodd" d="M104.399 7.97526C104.756 9.84706 106.06 10.159 107.942 10.6998C112.41 11.9684 116.08 15.66 116.984 20.6827C119.097 32.3502 105.345 39.7854 96.5342 32.9533C93.401 30.5096 92.7491 28.4714 91.6872 25.1126C90.5096 21.3898 84.5587 22.4713 85.484 26.9428C87.408 36.2498 97.1966 43.8929 108.205 41.5844C124.701 38.1424 129.033 17.3966 115.943 7.6113C113.998 6.15546 109.183 3.60774 106.712 4.21087C105.229 4.56444 104.031 6.07227 104.399 7.97526ZM76.6417 20.4435C78.3975 12.2076 65.9069 9.68068 64.0459 17.6774C63.1312 21.6186 65.9174 24.7174 68.9139 25.3622C72.8777 26.2253 75.9898 23.4904 76.6417 20.4435ZM97.9641 23.7711C98.3531 26.9636 101.465 29.6985 105.261 29.1993C113.556 28.0971 111.99 15.2961 103.4 16.5647C100.13 17.0535 97.5015 19.9859 97.9641 23.7711ZM68.6615 6.57142C72.5938 6.03068 76.2737 7.43452 78.5132 9.38951C82.6872 13.0187 82.2246 15.4312 83.1919 17.3966C84.7375 20.5267 90.2994 19.4244 89.0797 14.5681C88.3648 11.7396 86.5774 8.18324 84.6639 6.30105C82.5085 4.19008 80.5634 2.54706 77.0307 1.2264C62.984 -4.05622 48.0856 8.5472 51.4922 23.3344C52.3964 27.2444 53.8788 29.2617 55.7819 31.7055C57.9162 34.4404 65.2235 38.9743 68.4302 37.6432C69.7129 37.1025 70.8905 35.3971 70.102 33.5045C68.9664 30.7384 65.6545 32.1006 62.0482 28.8354C53.5634 21.1506 57.6534 8.05845 68.6615 6.57142Z" fill="#5D46AC"/>
</svg>
