<svg width="73" height="42" viewBox="0 0 73 42" fill="none" xmlns="http://www.w3.org/2000/svg">
<path fill-rule="evenodd" clip-rule="evenodd" d="M53.3987 7.97526C53.7561 9.84706 55.0599 10.159 56.9419 10.6998C61.4103 11.9684 65.0797 15.66 65.9839 20.6827C68.0972 32.3502 54.3449 39.7854 45.5342 32.9533C42.401 30.5096 41.7491 28.4714 40.6872 25.1126C39.5096 21.3898 33.5587 22.4713 34.484 26.9428C36.408 36.2498 46.1966 43.8929 57.2047 41.5844C73.7012 38.1424 78.033 17.3966 64.943 7.6113C62.998 6.15546 58.1825 3.60774 55.7117 4.21087C54.2293 4.56444 53.0307 6.07227 53.3987 7.97526ZM25.6417 20.4435C27.3975 12.2076 14.9069 9.68068 13.0459 17.6774C12.1312 21.6186 14.9174 24.7174 17.9139 25.3622C21.8777 26.2253 24.9898 23.4904 25.6417 20.4435ZM46.9641 23.7711C47.3531 26.9636 50.4652 29.6985 54.2608 29.1993C62.5564 28.0971 60.9898 15.2961 52.3998 16.5647C49.13 17.0535 46.5015 19.9859 46.9641 23.7711ZM17.6615 6.57142C21.5938 6.03068 25.2737 7.43452 27.5132 9.38951C31.6872 13.0187 31.2246 15.4312 32.1919 17.3966C33.7375 20.5267 39.2994 19.4244 38.0797 14.5681C37.3648 11.7396 35.5774 8.18324 33.6639 6.30105C31.5085 4.19008 29.5634 2.54706 26.0307 1.2264C11.984 -4.05622 -2.91439 8.5472 0.492152 23.3344C1.39636 27.2444 2.87883 29.2617 4.78187 31.7055C6.91621 34.4404 14.2235 38.9743 17.4302 37.6432C18.7129 37.1025 19.8905 35.3971 19.102 33.5045C17.9664 30.7384 14.6545 32.1006 11.0482 28.8354C2.56341 21.1506 6.65336 8.05845 17.6615 6.57142Z" fill="#5D46AC"/>
</svg>
