<svg width="253" height="36" viewBox="0 0 253 36" fill="none" xmlns="http://www.w3.org/2000/svg">
<path fill-rule="evenodd" clip-rule="evenodd" d="M45.5865 6.83594C45.8916 8.44034 47.0046 8.70773 48.6113 9.17123C52.426 10.2586 55.5586 13.4229 56.3305 17.728C58.1347 27.7287 46.3943 34.1018 38.8725 28.2457C36.1978 26.1511 35.6413 24.4041 34.7347 21.5251C33.7294 18.3341 28.6491 19.2611 29.439 23.0938C31.0815 31.0712 39.438 37.6225 48.8357 35.6438C62.9188 32.6935 66.6168 14.9114 55.4419 6.52397C53.7814 5.27611 49.6705 3.09235 47.5611 3.60932C46.2955 3.91237 45.2723 5.2048 45.5865 6.83594ZM21.8903 17.523C23.3893 10.4637 12.726 8.29772 11.1373 15.1521C10.3564 18.5302 12.735 21.1864 15.2931 21.739C18.677 22.4788 21.3338 20.1346 21.8903 17.523ZM40.0933 20.3753C40.4254 23.1116 43.0822 25.4558 46.3225 25.028C53.4044 24.0832 52.067 13.1109 44.7338 14.1983C41.9423 14.6173 39.6983 17.1308 40.0933 20.3753ZM15.0777 5.63264C18.4346 5.16915 21.5762 6.37245 23.488 8.04815C27.0514 11.1589 26.6565 13.2268 27.4822 14.9114C28.8017 17.5943 33.5499 16.6495 32.5087 12.487C31.8983 10.0626 30.3725 7.01421 28.7389 5.4009C26.8988 3.59149 25.2383 2.18319 22.2224 1.0512C10.2307 -3.47676 -2.48801 7.32617 0.420151 20.0009C1.19207 23.3523 2.45766 25.0815 4.08228 27.1761C5.90437 29.5203 12.1426 33.4065 14.8802 32.2656C15.9752 31.8021 16.9805 30.3403 16.3073 28.7181C15.338 26.3472 12.5106 27.5148 9.43187 24.716C2.18839 18.1291 5.67998 6.90725 15.0777 5.63264Z" fill="#5D46AC"/>
<path d="M80.18 7.55H83.96L89.42 25.1H89.45L94.91 7.55H98.69L91.37 29H87.5L80.18 7.55ZM100.697 29V7.55H109.817C113.927 7.55 116.897 9.47 116.897 13.97C116.897 18.47 113.927 20.42 109.817 20.42H104.267V29H100.697ZM104.267 10.58V17.36H109.667C112.067 17.36 113.327 16.34 113.327 13.97C113.327 11.63 112.067 10.58 109.667 10.58H104.267ZM119.271 29V7.55H128.391C132.501 7.55 135.471 9.47 135.471 13.97C135.471 18.47 132.501 20.42 128.391 20.42H122.841V29H119.271ZM122.841 10.58V17.36H128.241C130.641 17.36 131.901 16.34 131.901 13.97C131.901 11.63 130.641 10.58 128.241 10.58H122.841ZM159.571 14.63C159.181 12.59 157.621 9.53 153.151 9.53C148.051 9.53 145.921 13.94 145.921 18.26C145.921 22.61 148.051 27.02 153.151 27.02C157.651 27.02 159.391 23.96 159.571 21.26H162.271C161.791 26 158.431 29.42 153.151 29.42C147.271 29.42 143.221 24.74 143.221 18.26C143.221 11.81 147.271 7.13 153.151 7.13C158.401 7.13 161.761 10.55 162.271 14.63H159.571ZM171.571 29.42C166.891 29.42 164.071 26.12 164.071 21.35C164.071 16.58 166.891 13.28 171.571 13.28C176.221 13.28 179.041 16.58 179.041 21.35C179.041 26.12 176.221 29.42 171.571 29.42ZM171.571 27.32C174.991 27.32 176.641 24.62 176.641 21.35C176.641 18.08 174.991 15.38 171.571 15.38C168.121 15.38 166.471 18.08 166.471 21.35C166.471 24.62 168.121 27.32 171.571 27.32ZM188.964 13.28C191.754 13.28 194.094 14.81 194.094 18.32V29H191.694V18.92C191.694 16.94 190.764 15.38 188.364 15.38C185.664 15.38 183.864 17.09 183.864 19.46V29H181.464V13.7H183.864V15.53H183.924C184.734 14.45 186.354 13.28 188.964 13.28ZM204.814 13.28C207.604 13.28 209.944 14.81 209.944 18.32V29H207.544V18.92C207.544 16.94 206.614 15.38 204.214 15.38C201.514 15.38 199.714 17.09 199.714 19.46V29H197.314V13.7H199.714V15.53H199.774C200.584 14.45 202.204 13.28 204.814 13.28ZM219.674 27.32C222.734 27.32 223.874 25.34 224.144 24.29H226.544C225.764 27.14 223.574 29.42 219.764 29.42C215.114 29.42 212.294 26.15 212.294 21.35C212.294 16.25 215.174 13.28 219.644 13.28C224.444 13.28 226.784 16.55 226.784 21.98H214.694C214.694 24.74 216.344 27.32 219.674 27.32ZM219.644 15.38C216.764 15.38 214.694 17.42 214.694 19.88H224.384C224.384 17.42 222.524 15.38 219.644 15.38ZM240.02 19.22C239.9 17.54 238.76 15.38 235.7 15.38C232.07 15.38 230.69 18.47 230.69 21.35C230.69 24.23 232.07 27.32 235.7 27.32C238.79 27.32 239.9 25.19 240.02 23.36H242.42C242.21 26.84 239.48 29.42 235.7 29.42C231.23 29.42 228.29 26.15 228.29 21.35C228.29 16.55 231.23 13.28 235.7 13.28C239.48 13.28 242.06 15.8 242.42 19.22H240.02ZM251.376 15.8H248.376V25.01C248.376 26.75 249.336 27.05 251.376 26.9V29C250.836 29.12 250.206 29.18 249.576 29.18C247.536 29.18 245.976 28.37 245.976 25.25V15.8H243.726V13.7H245.976V8.6H248.376V13.7H251.376V15.8Z" fill="#171717"/>
</svg>
